HIERARCHY
ROOT Hips
{
 OFFSET 0.000000 0.000000 0.000000
 CHANNELS 6 Xposition Yposition Zposition Yrotation Xrotation Zrotation
 JOINT Chest
 {
  OFFSET 0.000000 9.588913 -0.003946
  CHANNELS 3 Yrotation Xrotation Zrotation
  JOINT Chest2
  {
   OFFSET 0.000000 9.541882 0.008053
   CHANNELS 3 Yrotation Xrotation Zrotation
   JOINT Chest3
   {
    OFFSET 0.000000 9.501360 0.000000
    CHANNELS 3 Yrotation Xrotation Zrotation
    JOINT Chest4
    {
     OFFSET 0.000000 9.491660 0.000000
     CHANNELS 3 Yrotation Xrotation Zrotation
     JOINT Neck
     {
      OFFSET 0.000000 14.331917 0.000000
      CHANNELS 3 Yrotation Xrotation Zrotation
      JOINT Head
      {
       OFFSET 0.000000 8.884799 0.017034
       CHANNELS 3 Yrotation Xrotation Zrotation
       End Site
       {
        OFFSET 0.000000 16.896195 0.008993
       }
      }
     }
     JOINT RightCollar
     {
      OFFSET -2.923010 9.499495 0.000000
      CHANNELS 3 Yrotation Xrotation Zrotation
      JOINT RightShoulder
      {
       OFFSET -13.795216 0.000000 0.000000
       CHANNELS 3 Yrotation Xrotation Zrotation
       JOINT RightElbow
       {
        OFFSET -30.272209 0.000000 0.000000
        CHANNELS 3 Yrotation Xrotation Zrotation
        JOINT RightWrist
        {
         OFFSET -24.478199 0.000000 0.000000
         CHANNELS 3 Yrotation Xrotation Zrotation
         End Site
         {
          OFFSET -18.090752 0.000000 0.000000
         }
        }
       }
      }
     }
     JOINT LeftCollar
     {
      OFFSET 2.923010 9.499495 0.000000
      CHANNELS 3 Yrotation Xrotation Zrotation
      JOINT LeftShoulder
      {
       OFFSET 13.795216 0.000000 0.000000
       CHANNELS 3 Yrotation Xrotation Zrotation
       JOINT LeftElbow
       {
        OFFSET 30.272209 0.000000 0.000000
        CHANNELS 3 Yrotation Xrotation Zrotation
        JOINT LeftWrist
        {
         OFFSET 24.478199 0.000000 0.000000
         CHANNELS 3 Yrotation Xrotation Zrotation
         End Site
         {
          OFFSET 18.090752 0.000000 0.000000
         }
        }
       }
      }
     }
    }
   }
  }
 }
 JOINT RightHip
 {
  OFFSET -7.826875 0.019532 0.001973
  CHANNELS 3 Yrotation Xrotation Zrotation
  JOINT RightKnee
  {
   OFFSET 0.000000 -40.546152 -0.001885
   CHANNELS 3 Yrotation Xrotation Zrotation
   JOINT RightAnkle
   {
    OFFSET 0.000000 -39.417092 -0.003189
    CHANNELS 3 Yrotation Xrotation Zrotation
    JOINT RightToe
    {
     OFFSET 0.000000 -7.579396 17.243563
     CHANNELS 3 Yrotation Xrotation Zrotation
     End Site
     {
      OFFSET 0.000000 -1.500329 6.694466
     }
    }
   }
  }
 }
 JOINT LeftHip
 {
  OFFSET 7.826875 0.019532 0.001973
  CHANNELS 3 Yrotation Xrotation Zrotation
  JOINT LeftKnee
  {
   OFFSET 0.000000 -40.546152 -0.001885
   CHANNELS 3 Yrotation Xrotation Zrotation
   JOINT LeftAnkle
   {
    OFFSET 0.000000 -39.417092 -0.003189
    CHANNELS 3 Yrotation Xrotation Zrotation
    JOINT LeftToe
    {
     OFFSET 0.000000 -7.579396 17.243563
     CHANNELS 3 Yrotation Xrotation Zrotation
     End Site
     {
      OFFSET 0.000000 -1.500329 6.694466
     }
    }
   }
  }
 }
}
MOTION
Frames: 15
Frame Time: 0.008333
52.683973 87.942392 -86.253007 143.344735 -8.699298 -1.382625 -0.672931 2.137468 0.264884 -0.011134 0.030174 0.005712 -0.020044 0.054328 0.010280 -0.783065 2.144104 0.390983 4.944980 20.233574 6.322151 7.120166 1.669571 10.035569 6.116975 -0.858101 0.935317 -30.072717 -13.313832 84.622396 47.793344 -58.448631 51.599284 8.619692 -36.036548 6.507629 -0.927106 1.336458 2.402288 7.846672 -2.818683 -90.173485 -35.814965 -31.352405 -77.178962 6.630696 -12.318342 -9.591631 -14.943276 12.407412 -9.528287 18.301334 1.138045 -3.042685 13.834227 -9.823595 6.013737 0.014174 -0.268903 -0.001114 13.878259 15.809710 10.872611 7.361993 -2.622910 0.648392 0.117343 -5.185364 -6.335980 0.035931 0.293353 0.002067
52.690778 87.940464 -86.253302 143.305277 -8.713685 -1.393054 -0.674229 2.148159 0.269814 -0.011179 0.030395 0.005746 -0.020124 0.054724 0.010340 -0.783424 2.152260 0.391895 4.928758 20.239929 6.315984 7.092796 1.682021 10.029297 6.131643 -0.869836 0.944953 -30.070680 -13.315400 84.634589 47.748252 -58.480853 51.635781 8.670852 -36.064569 6.483377 -0.918088 1.324264 2.393078 7.857357 -2.814413 -90.184490 -35.874325 -31.353136 -77.108763 6.758809 -12.235076 -9.659006 -14.906532 12.415710 -9.519242 18.301241 1.142057 -3.033654 13.856719 -9.825466 6.005197 0.021632 -0.265415 0.002865 13.918357 15.832528 10.895649 7.359587 -2.628103 0.648715 0.127604 -5.198091 -6.337809 0.036568 0.298101 0.001631
52.696331 87.938876 -86.253796 143.269242 -8.728476 -1.397931 -0.676952 2.157803 0.269516 -0.011221 0.030588 0.005767 -0.020200 0.055069 0.010379 -0.783983 2.159338 0.392128 4.913955 20.248052 6.308104 7.068595 1.697697 10.019513 6.144733 -0.878311 0.960783 -30.075923 -13.327682 84.645600 47.753523 -58.491709 51.613741 8.714162 -36.079260 6.443123 -0.912081 1.313580 2.384498 7.869671 -2.811526 -90.196063 -35.993931 -31.355982 -76.974880 6.908870 -12.126243 -9.718865 -14.877402 12.423435 -9.514451 18.300479 1.147896 -3.025907 13.865831 -9.828686 6.000658 0.021019 -0.260075 0.003543 13.943204 15.857719 10.909712 7.361899 -2.631918 0.647907 0.142825 -5.209027 -6.340690 0.036611 0.300984 0.003508
52.700456 87.937667 -86.254162 143.238624 -8.740588 -1.397936 -0.680393 2.165125 0.264273 -0.011264 0.030739 0.005769 -0.020276 0.055340 0.010381 -0.785099 2.164853 0.391193 4.900227 20.256908 6.299369 7.046638 1.714693 10.007862 6.152614 -0.883351 0.981329 -30.089683 -13.351112 84.657010 47.781263 -58.482268 51.560061 8.766447 -36.086634 6.387858 -0.911131 1.304352 2.377048 7.882348 -2.812505 -90.203100 -36.154448 -31.360307 -76.796283 7.070529 -12.005286 -9.768885 -14.856524 12.427474 -9.511645 18.301141 1.157135 -3.019431 13.855882 -9.833388 5.999668 0.013030 -0.253187 0.001028 13.952934 15.880556 10.914420 7.368786 -2.632854 0.647282 0.160077 -5.218964 -6.344321 0.036569 0.302346 0.006505
52.703696 87.936826 -86.253483 143.213028 -8.746676 -1.398488 -0.683725 2.169388 0.259553 -0.011290 0.030800 0.005753 -0.020322 0.055449 0.010353 -0.786189 2.167055 0.389691 4.885912 20.266055 6.289556 7.023944 1.732253 9.994427 6.154914 -0.887210 1.003626 -30.107376 -13.383428 84.668447 47.799879 -58.459793 51.503245 8.849535 -36.095630 6.317427 -0.911716 1.293543 2.370331 7.895672 -2.817004 -90.203447 -36.330956 -31.356194 -76.602261 7.223300 -11.881224 -9.804298 -14.842349 12.423543 -9.507529 18.306112 1.168753 -3.014274 13.849299 -9.838072 5.997694 0.008210 -0.247971 -0.000223 13.951283 15.895319 10.914599 7.378776 -2.630058 0.649358 0.177969 -5.229840 -6.349427 0.036558 0.303787 0.009400
52.706697 87.936372 -86.251562 143.189437 -8.747215 -1.402129 -0.686759 2.170024 0.258343 -0.011294 0.030756 0.005719 -0.020331 0.055370 0.010292 -0.787103 2.165442 0.387578 4.870123 20.275657 6.278480 6.998968 1.750721 9.979139 6.157415 -0.890626 1.026150 -30.120364 -13.418746 84.677073 47.800064 -58.435615 51.451869 8.973896 -36.116256 6.233110 -0.909552 1.281730 2.366092 7.905949 -2.824626 -90.198835 -36.501184 -31.344086 -76.414089 7.347318 -11.765368 -9.821866 -14.830095 12.411984 -9.500867 18.314014 1.181587 -3.009416 13.858931 -9.841629 5.990517 0.011587 -0.245843 0.003046 13.945718 15.901806 10.914168 7.389413 -2.624470 0.655929 0.194614 -5.242018 -6.356878 0.036380 0.305417 0.011567
52.709513 87.936270 -86.248807 143.165503 -8.743390 -1.406349 -0.689452 2.165904 0.258234 -0.011281 0.030608 0.005660 -0.020308 0.055104 0.010185 -0.788115 2.160022 0.384323 4.854266 20.286226 6.266470 6.974187 1.770985 9.962185 6.163142 -0.890066 1.047604 -30.121452 -13.450762 84.681855 47.780710 -58.423732 51.412223 9.131214 -36.150853 6.139331 -0.903413 1.273472 2.365695 7.910903 -2.837246 -90.190080 -36.640028 -31.328281 -76.253374 7.436315 -11.669270 -9.820764 -14.815834 12.394800 -9.492885 18.322712 1.195236 -3.003755 13.873948 -9.844080 5.980886 0.018054 -0.245165 0.007728 13.941768 15.902750 10.913398 7.400227 -2.618622 0.663579 0.207831 -5.253395 -6.363653 0.035857 0.306111 0.012203
52.712314 87.936453 -86.245533 143.142657 -8.736369 -1.410282 -0.691892 2.158160 0.257397 -0.011259 0.030388 0.005605 -0.020268 0.054712 0.010086 -0.789321 2.151837 0.381818 4.838955 20.297838 6.253239 6.950808 1.793163 9.942862 6.171675 -0.882992 1.063722 -30.115468 -13.477609 84.689326 47.733824 -58.430009 51.398749 9.302912 -36.196802 6.040734 -0.897182 1.270314 2.365621 7.910560 -2.856370 -90.174681 -36.726785 -31.310431 -76.138876 7.498595 -11.601009 -9.808197 -14.802895 12.375098 -9.483084 18.333140 1.208654 -2.999060 13.881297 -9.845142 5.974548 0.020890 -0.244655 0.009452 13.940526 15.899930 10.912489 7.413769 -2.614026 0.670618 0.214539 -5.262756 -6.369089 0.035593 0.305823 0.011873
52.715260 87.936860 -86.242254 143.123563 -8.728438 -1.412906 -0.693743 2.149469 0.255363 -0.011233 0.030160 0.005566 -0.020223 0.054302 0.010017 -0.790374 2.143195 0.380503 4.824149 20.310213 6.238647 6.928783 1.816739 9.920923 6.180575 -0.873035 1.072503 -30.108387 -13.497972 84.704873 47.653370 -58.452899 51.418720 9.460789 -36.248978 5.953979 -0.898527 1.269920 2.363134 7.907472 -2.878820 -90.151779 -36.756148 -31.293800 -76.079662 7.546655 -11.566022 -9.795699 -14.795905 12.357957 -9.472412 18.345434 1.218955 -2.995921 13.870677 -9.844094 5.971860 0.016890 -0.242942 0.008053 13.938527 15.895312 10.909990 7.432561 -2.609050 0.678011 0.213240 -5.270747 -6.375424 0.036330 0.304483 0.012185
52.718502 87.937429 -86.239490 143.108141 -8.722290 -1.413236 -0.695991 2.142260 0.251979 -0.011216 0.029967 0.005522 -0.020193 0.053958 0.009939 -0.791610 2.135912 0.378628 4.810578 20.322954 6.223217 6.909267 1.840945 9.897097 6.187844 -0.864780 1.078046 -30.097000 -13.508185 84.725949 47.548142 -58.492499 51.465155 9.585336 -36.301373 5.891138 -0.906534 1.269979 2.360105 7.901563 -2.901515 -90.125364 -36.738834 -31.283694 -76.066712 7.585201 -11.562642 -9.788281 -14.792875 12.345291 -9.464890 18.357826 1.226177 -2.991000 13.849903 -9.842535 5.968504 0.010864 -0.239746 0.005992 13.933521 15.893360 10.906101 7.455792 -2.604995 0.683357 0.207466 -5.276540 -6.382153 0.037070 0.301718 0.013603
52.722556 87.938098 -86.237272 143.091964 -8.720059 -1.413588 -0.698924 2.138978 0.248887 -0.011210 0.029853 0.005482 -0.020183 0.053754 0.009867 -0.792671 2.131609 0.376492 4.798141 20.335006 6.207319 6.891915 1.863829 9.872069 6.195072 -0.861474 1.083654 -30.078103 -13.506897 84.749099 47.441401 -58.544993 51.518628 9.676182 -36.349399 5.846710 -0.912436 1.266137 2.357061 7.890758 -2.922255 -90.098130 -36.693778 -31.280309 -76.077855 7.610007 -11.575725 -9.784510 -14.788240 12.335928 -9.461616 18.369804 1.232440 -2.983645 13.844367 -9.842477 5.962168 0.009732 -0.237248 0.005482 13.933049 15.896679 10.904937 7.476809 -2.604021 0.687240 0.202610 -5.279814 -6.389321 0.037035 0.298026 0.015362
52.727265 87.938717 -86.235301 143.074860 -8.720012 -1.415145 -0.701355 2.137893 0.246683 -0.011208 0.029796 0.005455 -0.020180 0.053651 0.009817 -0.793297 2.129469 0.374873 4.785872 20.345848 6.191485 6.874789 1.884462 9.847088 6.202002 -0.862134 1.089129 -30.054352 -13.498677 84.775251 47.351543 -58.601531 51.559386 9.735186 -36.390804 5.814790 -0.915050 1.257235 2.353490 7.879087 -2.938466 -90.071899 -36.640079 -31.277114 -76.096003 7.621298 -11.588442 -9.781772 -14.781790 12.327688 -9.460551 18.380854 1.238244 -2.975494 13.858050 -9.843815 5.953273 0.011666 -0.236152 0.006879 13.939465 15.901525 10.907075 7.491707 -2.603774 0.691842 0.199563 -5.282731 -6.397237 0.036681 0.294594 0.016717
52.732073 87.939149 -86.233596 143.063445 -8.720489 -1.417106 -0.704830 2.136593 0.245052 -0.011238 0.029760 0.005433 -0.020233 0.053587 0.009779 -0.795761 2.127804 0.373470 4.773565 20.355814 6.175539 6.857586 1.903473 9.821899 6.207919 -0.863894 1.093705 -30.034707 -13.489437 84.804038 47.272750 -58.654009 51.591152 9.769528 -36.421727 5.793172 -0.920697 1.246983 2.349451 7.868727 -2.950465 -90.050686 -36.598723 -31.275952 -76.101849 7.631201 -11.589719 -9.780427 -14.778236 12.320670 -9.459916 18.390439 1.244615 -2.967657 13.874277 -9.846676 5.942321 0.013358 -0.235531 0.009595 13.943513 15.905383 10.910127 7.501656 -2.601697 0.696340 0.197317 -5.287298 -6.405126 0.036366 0.292363 0.017806
52.737298 87.939430 -86.232576 143.057641 -8.725068 -1.420269 -0.710153 2.137671 0.244220 -0.011312 0.029794 0.005418 -0.020366 0.053647 0.009751 -0.800388 2.128380 0.371941 4.762117 20.363996 6.159309 6.841943 1.919141 9.795909 6.213196 -0.866301 1.099726 -30.025128 -13.483682 84.831784 47.188069 -58.698199 51.632244 9.786178 -36.440703 5.782265 -0.929845 1.236711 2.345851 7.857418 -2.960862 -90.036150 -36.585368 -31.282898 -76.079712 7.655788 -11.571516 -9.787460 -14.775456 12.320569 -9.458072 18.399330 1.250459 -2.962219 13.884897 -9.850075 5.931025 0.015771 -0.235732 0.013026 13.945389 15.910966 10.915620 7.507763 -2.595680 0.701226 0.195259 -5.295602 -6.413623 0.036437 0.291424 0.018911
52.742931 87.939553 -86.232245 143.047638 -8.734279 -1.423671 -0.713597 2.141874 0.243153 -0.011373 0.029902 0.005406 -0.020475 0.053841 0.009729 -0.803224 2.132101 0.370298 4.752363 20.368829 6.143350 6.829144 1.928532 9.769853 6.215232 -0.867600 1.108556 -30.019902 -13.483364 84.857801 47.097638 -58.735025 51.681366 9.780085 -36.453265 5.787626 -0.933849 1.226050 2.342560 7.841690 -2.971709 -90.026796 -36.598814 -31.296993 -76.030981 7.706894 -11.531569 -9.811222 -14.763323 12.327900 -9.455365 18.407851 1.253474 -2.957343 13.885332 -9.851839 5.922213 0.016121 -0.235966 0.014741 13.955357 15.918687 10.924539 7.512318 -2.584638 0.705609 0.192167 -5.308368 -6.422056 0.036890 0.290899 0.019806
